<svg xmlns="http://www.w3.org/2000/svg" version="1.1" xmlns:xlink="http://www.w3.org/1999/xlink" xmlns:svgjs="http://svgjs.dev/svgjs" width="1000" height="777" viewBox="0 0 1000 777"><g transform="matrix(1,0,0,1,-0.5994250415838565,-0.33867078748471613)"><svg viewBox="0 0 396 308" data-background-color="#282634" preserveAspectRatio="xMidYMid meet" height="777" width="1000" xmlns="http://www.w3.org/2000/svg" xmlns:xlink="http://www.w3.org/1999/xlink"><g id="tight-bounds" transform="matrix(1,0,0,1,0.24129045195184062,0.13696358447162993)"><svg viewBox="0 0 395.52 307.7287885200298" height="307.7287885200298" width="395.52"><g><svg viewBox="0 0 395.52 307.7287885200298" height="307.7287885200298" width="395.52"><g><svg viewBox="0 0 395.52 307.7287885200298" height="307.7287885200298" width="395.52"><g><svg viewBox="0 0 395.52 307.7287885200298" height="307.7287885200298" width="395.52" id="textblock"><g><svg viewBox="0 0 395.52 307.7287885200298" height="307.7287885200298" width="395.52"><g transform="matrix(1,0,0,1,0,0)"><svg width="395.52" viewBox="28.004993438720703 -22.103816986083984 42.836910247802734 33.32863235473633" height="307.7287885200298" data-palette-color="#ff4057"><path d="M38.104 7.138v0c-2.053-0.018-3.741-0.265-5.064-0.743-1.316-0.478-2.351-1.104-3.104-1.877-0.753-0.773-1.266-1.658-1.537-2.653-0.271-1.002-0.403-2.034-0.394-3.094v0l0.039-4.479c0.003-0.293 0.045-0.546 0.126-0.759 0.075-0.213 0.183-0.375 0.325-0.488v0l4.441-3.662c0.114-0.092 0.261-0.164 0.442-0.216 0.181-0.058 0.394-0.087 0.641-0.084v0l4.92 0.042c0.247 0.002 0.466 0.034 0.659 0.096 0.193 0.055 0.359 0.14 0.498 0.254v0l0.055-6.38c0.003-0.293 0.041-0.54 0.116-0.739 0.082-0.206 0.203-0.375 0.364-0.507v0l4.412-3.662c0.114-0.086 0.265-0.158 0.452-0.216 0.194-0.052 0.404-0.077 0.63-0.075v0l5.33 0.046c0.54 0.005 0.932 0.131 1.177 0.38 0.251 0.249 0.374 0.647 0.37 1.193v0l-0.144 16.79c-0.009 1.06-0.171 2.035-0.486 2.926-0.314 0.891-0.858 1.649-1.629 2.276v0l-4.412 3.662c-0.772 0.627-1.816 1.114-3.133 1.463-1.316 0.355-3.015 0.524-5.094 0.506zM52.518-3.698v0l0.144-16.79c0.004-0.433-0.09-0.747-0.282-0.942-0.192-0.188-0.501-0.284-0.928-0.288v0l-5.33-0.046c-0.427-0.004-0.737 0.087-0.932 0.272-0.195 0.192-0.294 0.504-0.298 0.938v0l-0.132 15.429c-0.004 0.453-0.137 0.832-0.4 1.137-0.263 0.304-0.881 0.452-1.854 0.444v0c-1.04-0.009-1.699-0.168-1.976-0.477-0.284-0.309-0.424-0.69-0.42-1.144v0l0.035-4.14c0.004-0.427-0.09-0.737-0.282-0.932-0.185-0.195-0.494-0.294-0.927-0.298v0l-4.92-0.042c-0.427-0.004-0.737 0.09-0.933 0.282-0.195 0.192-0.294 0.501-0.297 0.927v0l-0.048 5.5c-0.009 1.04 0.126 1.984 0.406 2.834 0.273 0.849 0.773 1.577 1.501 2.182 0.728 0.606 1.731 1.085 3.008 1.436 1.277 0.351 2.899 0.535 4.865 0.552v0c1.987 0.017 3.628-0.139 4.925-0.468 1.29-0.329 2.304-0.79 3.042-1.383 0.745-0.594 1.268-1.312 1.568-2.157 0.301-0.844 0.455-1.786 0.465-2.826zM48.455-4.553l0.121-14.14 0.34 0.003-0.121 14.14c-0.012 1.34-0.444 2.436-1.299 3.289-0.861 0.846-2.488 1.259-4.88 1.238v0c-1.267-0.011-2.312-0.133-3.137-0.367-0.825-0.227-1.472-0.543-1.942-0.947-0.47-0.397-0.799-0.88-0.988-1.448-0.188-0.568-0.28-1.192-0.274-1.873v0l0.023-2.68 0.34 0.003-0.023 2.68c-0.011 1.293 0.403 2.327 1.244 3.101 0.84 0.774 2.427 1.171 4.76 1.191v0c2.24 0.019 3.77-0.358 4.589-1.131 0.82-0.773 1.235-1.793 1.247-3.059zM53.707-5.911v0l-0.304 1.005 12.663 3.832 0.304-1.005c0.176-0.581 0.288-1.135 0.336-1.663 0.055-0.527 0.071-1.03 0.05-1.511v0l-0.638-5.971c-0.066-0.633-0.172-1.18-0.318-1.642-0.141-0.454-0.515-0.772-1.121-0.956v0l-3.187-0.964c-0.651-0.197-1.161-0.146-1.53 0.153-0.377 0.304-0.756 0.691-1.135 1.161v0l-3.69 4.703c-0.284 0.388-0.55 0.816-0.797 1.284-0.246 0.469-0.457 0.993-0.633 1.574zM57.912-6.582l3.026-4.475c0.143-0.173 0.275-0.286 0.395-0.34 0.129-0.058 0.258-0.068 0.386-0.03v0l0.813 0.246c0.128 0.039 0.226 0.117 0.295 0.236 0.077 0.114 0.127 0.282 0.15 0.505v0l0.036 5.402zM64.601 4.94l-0.325-0.099 1.691-5.589-12.662-3.832-1.692 5.589-0.325-0.098 2.094-6.92c0.183-0.606 0.4-1.15 0.65-1.632 0.248-0.475 0.534-0.925 0.858-1.349v0l3.688-4.693c0.42-0.535 0.842-0.964 1.267-1.288 0.43-0.316 1.012-0.362 1.745-0.141v0l3.188 0.965c0.715 0.216 1.154 0.572 1.317 1.067 0.168 0.504 0.288 1.108 0.361 1.812v0l0.637 5.971c0.027 0.531 0.013 1.063-0.044 1.596-0.052 0.541-0.17 1.115-0.354 1.721v0zM54.423 3.772v0l1.376-4.547 5.753 1.741-1.376 4.547c-0.124 0.408-0.111 0.736 0.036 0.982 0.148 0.247 0.439 0.436 0.874 0.568v0l4.9 1.483c0.415 0.126 0.739 0.123 0.974-0.008 0.241-0.129 0.423-0.398 0.547-0.807v0l2.596-8.575c0.195-0.644 0.319-1.422 0.371-2.333 0.051-0.904 0.029-1.983-0.065-3.237v0l-0.593-8.225c-0.022-0.411-0.141-0.743-0.357-0.996-0.216-0.253-0.531-0.443-0.946-0.568v0l-8.729-2.642c-0.434-0.131-0.814-0.152-1.14-0.063-0.32 0.091-0.6 0.302-0.84 0.634v0l-5.054 6.515c-0.774 0.992-1.39 1.878-1.849 2.658-0.467 0.785-0.799 1.5-0.994 2.145v0l-2.595 8.575c-0.124 0.408-0.121 0.733 0.008 0.975 0.129 0.241 0.398 0.423 0.806 0.546v0l4.776 1.446c0.415 0.126 0.739 0.123 0.974-0.008 0.241-0.129 0.423-0.398 0.547-0.806zM53.937 4.93l-5.284 2.236c-0.114 0.056-0.274 0.088-0.478 0.095-0.206 0.014-0.418-0.012-0.635-0.077v0l-4.767-1.443c-0.523-0.158-0.866-0.394-1.029-0.708-0.165-0.308-0.169-0.72-0.012-1.237v0l2.595-8.575c0.203-0.67 0.536-1.402 0.999-2.195 0.463-0.793 1.098-1.705 1.904-2.736v0l5.017-6.495c0.122-0.172 0.255-0.313 0.399-0.423 0.14-0.118 0.28-0.211 0.419-0.28v0l0.041-0.03 5.205-2.217c0.225-0.099 0.466-0.148 0.724-0.147 0.259-0.005 0.542 0.039 0.848 0.131v0l8.729 2.642c0.498 0.151 0.872 0.375 1.123 0.674 0.257 0.301 0.394 0.69 0.409 1.169v0l0.593 8.224c0.106 1.307 0.132 2.419 0.077 3.336-0.055 0.917-0.183 1.71-0.386 2.38v0l-2.595 8.576c-0.085 0.281-0.196 0.508-0.332 0.683-0.135 0.168-0.294 0.294-0.48 0.377v0l-5.284 2.235c-0.114 0.056-0.274 0.088-0.479 0.096-0.206 0.014-0.415-0.011-0.625-0.074v0l-4.91-1.486c-0.536-0.162-0.897-0.407-1.083-0.736-0.186-0.328-0.204-0.741-0.054-1.238v0l1.278-4.221-0.91-0.275-0.205 0.679c-0.085 0.281-0.196 0.508-0.332 0.683-0.135 0.168-0.294 0.294-0.48 0.377z" opacity="1" transform="matrix(1,0,0,1,0,0)" fill="#ff4057" class="undefined-text-0" data-fill-palette-color="primary" id="text-0"></path></svg></g></svg></g></svg></g></svg></g><g></g></svg></g><defs></defs></svg><rect width="395.52" height="307.7287885200298" fill="none" stroke="none" visibility="hidden"></rect></g></svg></g></svg>